<svg width="31" height="32" viewBox="0 0 31 32" fill="none" xmlns="http://www.w3.org/2000/svg">
<path d="M11.3362 12.0559C11.6653 11.1202 12.315 10.3312 13.1702 9.82864C14.0253 9.32608 15.0306 9.14238 16.0082 9.31005C16.9859 9.47775 17.8725 9.98599 18.5113 10.7448C19.15 11.5036 19.4997 12.464 19.4982 13.4559C19.4982 16.2559 15.2982 17.6559 15.2982 17.6559M15.4102 23.2559H15.4242M29.4102 16.2559C29.4102 23.9878 23.1421 30.2559 15.4102 30.2559C7.67817 30.2559 1.41016 23.9878 1.41016 16.2559C1.41016 8.52387 7.67817 2.25586 15.4102 2.25586C23.1421 2.25586 29.4102 8.52387 29.4102 16.2559Z" stroke="#B4A21B" stroke-width="2.8" stroke-linecap="round" stroke-linejoin="round"/>
</svg>
