<svg width="35" height="39" viewBox="0 0 35 39" fill="none" xmlns="http://www.w3.org/2000/svg">
<path d="M12.8455 34.9451C14.0569 36.0143 15.6482 36.663 17.3908 36.663C19.1336 36.663 20.7248 36.0143 21.9361 34.9451M27.6983 12.6122C27.6983 9.87845 26.6124 7.25671 24.6794 5.32368C22.7462 3.39065 20.1245 2.30469 17.3908 2.30469C14.6571 2.30469 12.0354 3.39065 10.1024 5.32368C8.16932 7.25671 7.08336 9.87845 7.08336 12.6122C7.08336 17.9209 5.74419 21.5556 4.24822 23.9597C2.98636 25.9877 2.35542 27.0016 2.37854 27.2845C2.40417 27.5977 2.47052 27.7171 2.7229 27.9044C2.95085 28.0734 3.97838 28.0734 6.03346 28.0734H28.7483C30.8032 28.0734 31.8309 28.0734 32.0587 27.9044C32.3112 27.7171 32.3775 27.5977 32.4031 27.2845C32.4263 27.0016 31.7953 25.9877 30.5335 23.9597C29.0374 21.5556 27.6983 17.9209 27.6983 12.6122Z" stroke="#7F7F7F" stroke-width="3.43583" stroke-linecap="round" stroke-linejoin="round"/>
</svg>
