<svg width="32" height="26" viewBox="0 0 32 26" fill="none" xmlns="http://www.w3.org/2000/svg">
<path d="M3.95736 20.5328H3.17958C2.76702 20.5328 2.37136 20.3689 2.07964 20.0772C1.78791 19.7854 1.62402 19.3898 1.62402 18.9772C1.62402 17.7395 2.11569 16.5525 2.99086 15.6774C3.86603 14.8022 5.05301 14.3105 6.29069 14.3105H7.84625M7.84625 9.5661C7.27507 9.44928 6.73747 9.20554 6.27321 8.8529C5.80896 8.50026 5.42993 8.04775 5.16416 7.52885C4.8984 7.00995 4.7527 6.43794 4.73785 5.85513C4.723 5.27232 4.83938 4.69363 5.07837 4.16187C5.31737 3.63011 5.67286 3.15889 6.11856 2.78307C6.56425 2.40724 7.08874 2.13644 7.65323 1.99068C8.21771 1.84493 8.80774 1.82796 9.37967 1.94102C9.9516 2.05409 10.4908 2.29429 10.9574 2.64387M27.2907 20.5328H28.0685C28.481 20.5328 28.8767 20.3689 29.1684 20.0772C29.4601 19.7854 29.624 19.3898 29.624 18.9772C29.624 17.7395 29.1324 16.5525 28.2572 15.6774C27.382 14.8022 26.195 14.3105 24.9574 14.3105H23.4018M23.4018 9.5661C23.973 9.44928 24.5106 9.20554 24.9748 8.8529C25.4391 8.50026 25.8181 8.04775 26.0839 7.52885C26.3497 7.00995 26.4953 6.43794 26.5102 5.85513C26.525 5.27232 26.4087 4.69363 26.1697 4.16187C25.9307 3.63011 25.5752 3.15889 25.1295 2.78307C24.6838 2.40724 24.1593 2.13644 23.5948 1.99068C23.0303 1.84493 22.4403 1.82796 21.8684 1.94102C21.2964 2.05409 20.7573 2.29429 20.2907 2.64387M21.0685 23.6439H10.1796C9.76702 23.6439 9.37136 23.48 9.07964 23.1883C8.78791 22.8965 8.62402 22.5009 8.62402 22.0883C8.62402 20.8506 9.11569 19.6637 9.99086 18.7885C10.866 17.9133 12.053 17.4217 13.2907 17.4217H17.9574C19.195 17.4217 20.382 17.9133 21.2572 18.7885C22.1324 19.6637 22.624 20.8506 22.624 22.0883C22.624 22.5009 22.4601 22.8965 22.1684 23.1883C21.8767 23.48 21.481 23.6439 21.0685 23.6439ZM19.5129 8.8661C19.5129 9.89749 19.1032 10.8866 18.3739 11.616C17.6446 12.3453 16.6554 12.755 15.624 12.755C14.5926 12.755 13.6035 12.3453 12.8742 11.616C12.1449 10.8866 11.7351 9.89749 11.7351 8.8661C11.7351 7.8347 12.1449 6.84554 12.8742 6.11624C13.6035 5.38693 14.5926 4.97721 15.624 4.97721C16.6554 4.97721 17.6446 5.38693 18.3739 6.11624C19.1032 6.84554 19.5129 7.8347 19.5129 8.8661Z" stroke="#1EB41B" stroke-width="3.11111" stroke-linecap="round"/>
</svg>
