<svg width="32" height="26" viewBox="0 0 32 26" fill="none" xmlns="http://www.w3.org/2000/svg">
<path d="M3.93392 20.5328H3.15614C2.74358 20.5328 2.34792 20.3689 2.0562 20.0772C1.76447 19.7854 1.60059 19.3898 1.60059 18.9772C1.60059 17.7395 2.09225 16.5525 2.96742 15.6774C3.84259 14.8022 5.02958 14.3105 6.26725 14.3105H7.82281M7.82281 9.5661C7.25163 9.44928 6.71403 9.20554 6.24977 8.8529C5.78552 8.50026 5.40649 8.04775 5.14072 7.52885C4.87496 7.00995 4.72926 6.43794 4.71441 5.85513C4.69956 5.27232 4.81594 4.69363 5.05493 4.16187C5.29393 3.63011 5.64942 3.15889 6.09512 2.78307C6.54081 2.40724 7.0653 2.13644 7.62979 1.99068C8.19427 1.84493 8.78431 1.82796 9.35624 1.94102C9.92817 2.05409 10.4674 2.29429 10.9339 2.64387M27.2673 20.5328H28.045C28.4576 20.5328 28.8533 20.3689 29.145 20.0772C29.4367 19.7854 29.6006 19.3898 29.6006 18.9772C29.6006 17.7395 29.1089 16.5525 28.2338 15.6774C27.3586 14.8022 26.1716 14.3105 24.9339 14.3105H23.3784M23.3784 9.5661C23.9495 9.44928 24.4871 9.20554 24.9514 8.8529C25.4157 8.50026 25.7947 8.04775 26.0604 7.52885C26.3262 7.00995 26.4719 6.43794 26.4868 5.85513C26.5016 5.27232 26.3852 4.69363 26.1462 4.16187C25.9072 3.63011 25.5518 3.15889 25.1061 2.78307C24.6604 2.40724 24.1359 2.13644 23.5714 1.99068C23.0069 1.84493 22.4169 1.82796 21.8449 1.94102C21.273 2.05409 20.7338 2.29429 20.2673 2.64387M21.045 23.6439H10.1561C9.74358 23.6439 9.34792 23.48 9.0562 23.1883C8.76447 22.8965 8.60059 22.5009 8.60059 22.0883C8.60059 20.8506 9.09225 19.6637 9.96742 18.7885C10.8426 17.9133 12.0296 17.4217 13.2673 17.4217H17.9339C19.1716 17.4217 20.3586 17.9133 21.2338 18.7885C22.1089 19.6637 22.6006 20.8506 22.6006 22.0883C22.6006 22.5009 22.4367 22.8965 22.145 23.1883C21.8533 23.48 21.4576 23.6439 21.045 23.6439ZM19.4895 8.8661C19.4895 9.89749 19.0798 10.8866 18.3504 11.616C17.6211 12.3453 16.632 12.755 15.6006 12.755C14.5692 12.755 13.58 12.3453 12.8507 11.616C12.1214 10.8866 11.7117 9.89749 11.7117 8.8661C11.7117 7.8347 12.1214 6.84554 12.8507 6.11624C13.58 5.38693 14.5692 4.97721 15.6006 4.97721C16.632 4.97721 17.6211 5.38693 18.3504 6.11624C19.0798 6.84554 19.4895 7.8347 19.4895 8.8661Z" stroke="#6A1BB4" stroke-width="3.11111" stroke-linecap="round"/>
</svg>
